<svg width="800" height="420" viewBox="0 0 800 420" xmlns="http://www.w3.org/2000/svg" font-family="'Courier New', monospace">
  <defs>
    <radialGradient id="bg" cx="50%" cy="50%" r="70%">
      <stop offset="0%" stop-color="#0d0820"/>
      <stop offset="60%" stop-color="#08050f"/>
      <stop offset="100%" stop-color="#030208"/>
    </radialGradient>
    <radialGradient id="glow-orange" cx="50%" cy="50%" r="50%">
      <stop offset="0%" stop-color="#ff5820" stop-opacity="0.35"/>
      <stop offset="100%" stop-color="#ff5820" stop-opacity="0"/>
    </radialGradient>
    <radialGradient id="glow-center" cx="50%" cy="50%" r="50%">
      <stop offset="0%" stop-color="#ffffff" stop-opacity="0.15"/>
      <stop offset="100%" stop-color="#ffffff" stop-opacity="0"/>
    </radialGradient>
    <filter id="blur-sm"><feGaussianBlur stdDeviation="1.5"/></filter>
    <filter id="blur-lg"><feGaussianBlur stdDeviation="8"/></filter>
    <filter id="glow-text">
      <feGaussianBlur stdDeviation="3" result="blur"/>
      <feMerge><feMergeNode in="blur"/><feMergeNode in="SourceGraphic"/></feMerge>
    </filter>
  </defs>

  <!-- Background -->
  <rect width="800" height="420" fill="url(#bg)"/>

  <!-- Subtle border -->
  <rect x="1" y="1" width="798" height="418" rx="14" fill="none" stroke="#ff5820" stroke-opacity="0.2" stroke-width="1"/>
  <rect x="4" y="4" width="792" height="412" rx="12" fill="none" stroke="#ff3010" stroke-opacity="0.08" stroke-width="0.5"/>

  <!-- Background stars (small) -->
  <circle cx="42" cy="28" r="0.8" fill="white" opacity="0.6"/>
  <circle cx="130" cy="55" r="0.6" fill="white" opacity="0.4"/>
  <circle cx="210" cy="18" r="1" fill="white" opacity="0.7"/>
  <circle cx="290" cy="38" r="0.7" fill="white" opacity="0.5"/>
  <circle cx="380" cy="15" r="0.9" fill="white" opacity="0.6"/>
  <circle cx="460" cy="42" r="0.6" fill="white" opacity="0.4"/>
  <circle cx="550" cy="22" r="1.1" fill="white" opacity="0.8"/>
  <circle cx="630" cy="50" r="0.7" fill="white" opacity="0.5"/>
  <circle cx="720" cy="28" r="0.9" fill="white" opacity="0.6"/>
  <circle cx="770" cy="65" r="0.6" fill="white" opacity="0.4"/>
  <circle cx="68" cy="90" r="0.7" fill="white" opacity="0.5"/>
  <circle cx="158" cy="380" r="0.8" fill="white" opacity="0.6"/>
  <circle cx="240" cy="395" r="0.6" fill="white" opacity="0.4"/>
  <circle cx="340" cy="405" r="1" fill="white" opacity="0.7"/>
  <circle cx="490" cy="390" r="0.7" fill="white" opacity="0.5"/>
  <circle cx="600" cy="400" r="0.9" fill="white" opacity="0.6"/>
  <circle cx="700" cy="385" r="0.6" fill="white" opacity="0.4"/>
  <circle cx="760" cy="370" r="1" fill="white" opacity="0.7"/>
  <circle cx="18" cy="200" r="0.8" fill="white" opacity="0.5"/>
  <circle cx="782" cy="220" r="0.9" fill="white" opacity="0.6"/>
  <circle cx="25" cy="320" r="0.6" fill="white" opacity="0.4"/>
  <circle cx="775" cy="310" r="0.8" fill="white" opacity="0.5"/>
  <circle cx="95" cy="150" r="0.7" fill="white" opacity="0.6"/>
  <circle cx="700" cy="160" r="0.9" fill="white" opacity="0.7"/>
  <circle cx="112" cy="260" r="0.6" fill="white" opacity="0.4"/>
  <circle cx="688" cy="270" r="0.7" fill="white" opacity="0.5"/>

  <!-- Orange nebula glow top-right -->
  <ellipse cx="680" cy="80" rx="120" ry="80" fill="url(#glow-orange)" filter="url(#blur-lg)"/>
  <!-- Soft center glow -->
  <ellipse cx="400" cy="210" rx="200" ry="150" fill="url(#glow-center)" filter="url(#blur-lg)"/>

  <!-- Constellation dot nodes -->
  <!-- Left cluster -->
  <circle cx="80" cy="130" r="2.5" fill="#ff8040" opacity="0.9"/>
  <circle cx="115" cy="175" r="1.8" fill="#ffaa60" opacity="0.7"/>
  <circle cx="65" cy="195" r="1.5" fill="#ffcc80" opacity="0.6"/>
  <circle cx="100" cy="220" r="2" fill="#ff6020" opacity="0.8"/>
  <!-- Right cluster -->
  <circle cx="720" cy="140" r="2.5" fill="#ff8040" opacity="0.9"/>
  <circle cx="690" cy="185" r="1.8" fill="#ffaa60" opacity="0.7"/>
  <circle cx="735" cy="200" r="1.5" fill="#ffcc80" opacity="0.6"/>
  <circle cx="705" cy="230" r="2" fill="#ff6020" opacity="0.8"/>
  <!-- Top cluster -->
  <circle cx="350" cy="50" r="1.8" fill="#ffaa60" opacity="0.6"/>
  <circle cx="400" cy="38" r="2.2" fill="#ff8040" opacity="0.8"/>
  <circle cx="450" cy="55" r="1.6" fill="#ffcc80" opacity="0.6"/>
  <!-- Bottom cluster -->
  <circle cx="300" cy="370" r="1.8" fill="#ffaa60" opacity="0.6"/>
  <circle cx="400" cy="382" r="2" fill="#ff8040" opacity="0.7"/>
  <circle cx="500" cy="368" r="1.6" fill="#ffcc80" opacity="0.5"/>

  <!-- Constellation lines -->
  <line x1="80" y1="130" x2="115" y2="175" stroke="#ff6020" stroke-width="0.5" opacity="0.35"/>
  <line x1="115" y1="175" x2="65" y2="195" stroke="#ff6020" stroke-width="0.5" opacity="0.35"/>
  <line x1="65" y1="195" x2="100" y2="220" stroke="#ff6020" stroke-width="0.5" opacity="0.35"/>
  <line x1="720" y1="140" x2="690" y2="185" stroke="#ff6020" stroke-width="0.5" opacity="0.35"/>
  <line x1="690" y1="185" x2="735" y2="200" stroke="#ff6020" stroke-width="0.5" opacity="0.35"/>
  <line x1="735" y1="200" x2="705" y2="230" stroke="#ff6020" stroke-width="0.5" opacity="0.35"/>
  <line x1="350" y1="50" x2="400" y2="38" stroke="#ff6020" stroke-width="0.5" opacity="0.3"/>
  <line x1="400" y1="38" x2="450" y2="55" stroke="#ff6020" stroke-width="0.5" opacity="0.3"/>

  <!-- Horizontal divider lines -->
  <line x1="40" y1="100" x2="760" y2="100" stroke="#ff5820" stroke-width="0.4" opacity="0.2"/>
  <line x1="40" y1="340" x2="760" y2="340" stroke="#ff5820" stroke-width="0.4" opacity="0.2"/>

  <!-- Central star / name node -->
  <circle cx="400" cy="72" r="6" fill="#ff5820" opacity="0.9" filter="url(#blur-sm)"/>
  <circle cx="400" cy="72" r="3.5" fill="#ffffff"/>
  <!-- Star cross -->
  <line x1="400" y1="64" x2="400" y2="80" stroke="white" stroke-width="1" opacity="0.9"/>
  <line x1="392" y1="72" x2="408" y2="72" stroke="white" stroke-width="1" opacity="0.9"/>
  <line x1="395" y1="67" x2="405" y2="77" stroke="white" stroke-width="0.5" opacity="0.5"/>
  <line x1="405" y1="67" x2="395" y2="77" stroke="white" stroke-width="0.5" opacity="0.5"/>

  <!-- NAME -->
  <text x="400" y="100" text-anchor="middle" font-size="28" font-weight="bold" fill="#ffffff" letter-spacing="8" filter="url(#glow-text)">NISARG</text>
  <text x="400" y="118" text-anchor="middle" font-size="10" fill="#ff8040" letter-spacing="3" opacity="0.8">RA 21h 42m  ·  DEC +18° 52'  ·  MAG 1.0</text>

  <!-- Divider -->
  <line x1="160" y1="128" x2="640" y2="128" stroke="#ff5820" stroke-width="0.6" opacity="0.4"/>
  <circle cx="160" cy="128" r="2" fill="#ff5820" opacity="0.6"/>
  <circle cx="640" cy="128" r="2" fill="#ff5820" opacity="0.6"/>

  <!-- INFO ROWS -->
  <!-- Row 1 -->
  <text x="155" y="158" font-size="11" fill="#ff6030" letter-spacing="1">🪐  OBJECT CLASS</text>
  <text x="155" y="158" font-size="11" fill="#ff6030" letter-spacing="1" dx="0"/>
  <text x="370" y="158" font-size="11" fill="#e8e0f0" letter-spacing="0.5">→  Full Stack Developer</text>

  <!-- Row 2 -->
  <text x="155" y="182" font-size="11" fill="#ff6030" letter-spacing="1">🌍  ORIGIN SYSTEM</text>
  <text x="370" y="182" font-size="11" fill="#e8e0f0" letter-spacing="0.5">→  India</text>

  <!-- Row 3 -->
  <text x="155" y="206" font-size="11" fill="#ff6030" letter-spacing="1">🛰  SQUADRON</text>
  <text x="370" y="206" font-size="11" fill="#e8e0f0" letter-spacing="0.5">→  Student Developers Club</text>

  <!-- Mid divider -->
  <line x1="155" y1="220" x2="645" y2="220" stroke="#ff5820" stroke-width="0.4" opacity="0.25" stroke-dasharray="4 4"/>

  <!-- Row 4 label -->
  <text x="400" y="238" text-anchor="middle" font-size="10" fill="#ff8040" letter-spacing="3" opacity="0.7">·  ORBITAL TRAITS  ·</text>

  <text x="155" y="258" font-size="11" fill="#ffaa60" letter-spacing="0.5">  ⊹  Hackathons &amp; building under pressure</text>
  <text x="155" y="276" font-size="11" fill="#ffaa60" letter-spacing="0.5">  ⊹  Creative tech projects</text>
  <text x="155" y="294" font-size="11" fill="#ffaa60" letter-spacing="0.5">  ⊹  Video editing &amp; motion design</text>

  <!-- Mid divider 2 -->
  <line x1="155" y1="308" x2="645" y2="308" stroke="#ff5820" stroke-width="0.4" opacity="0.25" stroke-dasharray="4 4"/>

  <!-- Signal acquisitions -->
  <text x="400" y="326" text-anchor="middle" font-size="10" fill="#ff8040" letter-spacing="3" opacity="0.7">·  SIGNAL ACQUISITIONS  ·</text>
  <text x="400" y="345" text-anchor="middle" font-size="11" fill="#e8e0f0" letter-spacing="2">React  ◈  Next.js  ◈  Node.js  ◈  Docker  ◈  PostgreSQL</text>

  <!-- Bottom divider -->
  <line x1="160" y1="358" x2="640" y2="358" stroke="#ff5820" stroke-width="0.6" opacity="0.4"/>
  <circle cx="160" cy="358" r="2" fill="#ff5820" opacity="0.6"/>
  <circle cx="640" cy="358" r="2" fill="#ff5820" opacity="0.6"/>

  <!-- Last transmission -->
  <text x="400" y="382" text-anchor="middle" font-size="10" fill="#ff6030" letter-spacing="1">📻  LAST TRANSMISSION  →  "I debug at 2am and call it productive"</text>

  <!-- Corner decorations -->
  <text x="22" y="22" font-size="9" fill="#ff5820" opacity="0.4">✦</text>
  <text x="775" y="22" font-size="9" fill="#ff5820" opacity="0.4">✦</text>
  <text x="22" y="412" font-size="9" fill="#ff5820" opacity="0.4">✦</text>
  <text x="775" y="412" font-size="9" fill="#ff5820" opacity="0.4">✦</text>
</svg>
